<?xml version="1.0" encoding="UTF-8"?>
<svg version="1.1" xmlns="http://www.w3.org/2000/svg" width="560" height="320">
<path d="M0 0 C0.96091081 -0.00171833 1.92182161 -0.00343666 2.91185093 -0.00520706 C6.12573981 -0.0095456 9.33957715 -0.00657095 12.5534668 -0.00341797 C14.87606831 -0.00460729 17.19866966 -0.00613216 19.52127075 -0.00796509 C27.18175369 -0.01176887 34.84220792 -0.00404149 42.50268555 0.00439453 C45.15341183 0.00666924 47.80413815 0.00890699 50.4548645 0.0111084 C66.85943801 0.02585556 83.26394263 0.05875957 99.66846734 0.10073948 C100.79604952 0.10362429 100.79604952 0.10362429 101.94641113 0.10656738 C102.70190992 0.10850318 103.45740871 0.11043898 104.2358014 0.11243343 C109.7263303 0.12627867 115.21686129 0.13778258 120.70739746 0.14831543 C138.34604747 0.18265609 155.98450619 0.23146798 173.62299252 0.31651115 C181.39040027 0.35374935 189.15771528 0.3850377 196.92520142 0.39984131 C203.56985425 0.41264153 210.21427416 0.43937491 216.85879374 0.48380697 C220.26415662 0.5062062 223.66923703 0.52234206 227.07468033 0.52131271 C230.78859924 0.52366747 234.50157601 0.55056608 238.21533203 0.58349609 C239.28929891 0.5784651 240.36326578 0.5734341 241.46977711 0.56825066 C251.94083012 0.71275607 260.14778143 3.88397939 267.7097168 11.18798828 C273.01890629 17.48376731 276.48950365 24.81733291 280.19018555 32.12939453 C280.80708123 33.32861049 281.42497762 34.52731203 282.04370117 35.72558594 C283.74474583 39.02186239 285.43334252 42.32424788 287.11294556 45.63150024 C287.78191314 46.94861254 288.45258993 48.26485831 289.12509155 49.58016968 C296.72696415 64.49748679 300.66056535 76.70684906 296.42456055 93.39111328 C292.62779696 104.88953972 286.95915976 115.78398853 281.48999023 126.56494141 C278.15366522 133.1469832 274.95119651 139.79198416 271.75268555 146.44189453 C270.90758423 148.19771851 270.90758423 148.19771851 270.04541016 149.98901367 C267.19522417 155.9212862 264.3697585 161.86383545 261.58203125 167.82568359 C247.70774372 197.43839048 247.70774372 197.43839048 239.19018555 208.12939453 C238.57788086 208.91572266 237.96557617 209.70205078 237.3347168 210.51220703 C229.48179521 220.01095051 221.33218481 223.92127921 209.19018555 225.12939453 C202.67400964 225.45181681 196.14934701 225.36696086 189.62768555 225.31689453 C187.80745573 225.31002998 185.98722453 225.3035225 184.16699219 225.29736328 C169.82791436 225.22796173 155.51222335 224.84865274 141.19018555 224.12939453 C141.19018555 221.12939453 141.19018555 221.12939453 143.2019043 218.93017578 C144.52641602 217.69847656 144.52641602 217.69847656 145.87768555 216.44189453 C151.00966011 211.46938811 154.54983593 206.6337778 157.56518555 200.19189453 C159.19018555 198.12939453 159.19018555 198.12939453 162.1809082 197.51367188 C166.76563173 196.98211612 171.35314599 196.95687547 175.96362305 196.91845703 C177.85946507 196.89039239 179.7552983 196.86172795 181.65112305 196.83251953 C184.60880315 196.79131802 187.56631813 196.75438444 190.52416992 196.72802734 C193.4001558 196.70024467 196.27542022 196.65438682 199.15112305 196.60595703 C200.02328461 196.60270416 200.89544617 196.59945129 201.79403687 196.59609985 C209.15901035 196.45043502 215.73815481 194.74966535 222.19018555 191.12939453 C223.3605864 189.27063065 223.3605864 189.27063065 224.19018555 187.12939453 C224.92750801 185.71867243 225.66868895 184.30996309 226.4128418 182.90283203 C239.15116045 158.71539608 251.40611048 134.26173598 263.05737305 109.53173828 C264.15834968 107.19690853 265.26723085 104.86597829 266.37768555 102.53564453 C267.02394641 101.17126362 267.66981092 99.80669487 268.31518555 98.44189453 C269.12342773 96.73453125 269.12342773 96.73453125 269.94799805 94.99267578 C273.31342019 87.23527191 273.84317561 78.49158321 270.8269043 70.53173828 C269.5566842 67.91502219 268.15000469 65.3855342 266.72924805 62.84814453 C264.69654657 59.20575014 262.99410454 55.48901489 261.33862305 51.66064453 C260.83878906 50.53182861 260.33895508 49.4030127 259.82397461 48.23999023 C258.83420018 45.99441948 257.86903513 43.73780561 256.93139648 41.4699707 C256.4625 40.43332275 255.99360352 39.3966748 255.51049805 38.32861328 C255.1110498 37.39879639 254.71160156 36.46897949 254.30004883 35.51098633 C250.68578526 31.43124308 245.12912792 30.46373197 239.81877232 29.85961986 C237.4141208 29.75866535 235.02731452 29.74799877 232.62072754 29.77536011 C231.71172872 29.7735024 230.8027299 29.77164469 229.86618567 29.76973069 C226.84833754 29.76715037 223.83101724 29.78590578 220.81323242 29.8046875 C218.63722339 29.8071735 216.46121248 29.80831784 214.28520203 29.80822754 C209.60956867 29.81092689 204.93409173 29.82311862 200.25849915 29.84276962 C192.84066678 29.87392925 185.42289342 29.88408945 178.00500488 29.89163208 C166.91409422 29.90529105 155.82325966 29.9310476 144.73239034 29.96394362 C123.07569694 30.02810815 101.41896049 30.06863469 79.76219797 30.10147202 C72.41424299 30.1131864 65.06634109 30.13138772 57.71841478 30.15489542 C52.02476688 30.1723677 46.33111592 30.18487682 40.63745117 30.1953125 C39.56931277 30.19757709 38.50117437 30.19984169 37.40066814 30.2021749 C24.36301325 30.22323972 11.35610497 30.15300526 -1.65956879 29.30975151 C-7.43224791 28.97285123 -12.21281113 28.83701037 -16.79537964 32.88206005 C-18.93741451 35.27174712 -20.23173142 37.48870157 -21.65563965 40.36021423 C-22.18544937 41.4186705 -22.71525909 42.47712677 -23.26112366 43.56765747 C-23.8295549 44.7236142 -24.39798615 45.87957092 -24.98364258 47.07055664 C-25.59771723 48.30474963 -26.21251789 49.53858161 -26.82798767 50.77207947 C-28.14924478 53.42383257 -29.46545724 56.07800711 -30.77781677 58.73417473 C-32.85428301 62.93651041 -34.94257489 67.132898 -37.03259277 71.32850647 C-41.09087809 79.47933799 -45.13732116 87.6360179 -49.18235016 95.79343414 C-54.33015212 106.17365097 -59.48264653 116.55152059 -64.64706564 126.92348105 C-66.72233377 131.09235871 -68.79141651 135.26423028 -70.85569 139.43856227 C-72.14246428 142.03772893 -73.4342127 144.63440021 -74.72726631 147.23044777 C-75.60846288 149.00345934 -76.48358392 150.77948645 -77.35850525 152.55560303 C-77.88831497 153.61687912 -78.41812469 154.67815521 -78.96398926 155.77159119 C-79.41969048 156.69095428 -79.87539169 157.61031736 -80.34490204 158.55753994 C-83.23533287 163.63208756 -86.64039528 167.00589025 -91.37231445 170.37939453 C-92.32235352 171.06517578 -93.27239258 171.75095703 -94.2512207 172.45751953 C-98.32748434 175.12109333 -101.53970858 175.29857385 -106.31762695 175.44580078 C-106.97918289 175.46689911 -107.64073883 175.48799744 -108.32234192 175.50973511 C-116.26267188 175.75261188 -124.20525379 175.91522631 -132.14764404 176.07287598 C-134.86031037 176.13046657 -137.57254802 176.19871997 -140.28491211 176.26904297 C-144.87785592 176.38535686 -149.47036667 176.46648612 -154.06439209 176.52536011 C-155.83529939 176.55277559 -157.6060801 176.59058799 -159.37652588 176.63943481 C-171.11568227 176.95124789 -180.96968753 176.46729229 -190.09082031 168.01586914 C-194.63810962 163.20969801 -197.0856286 158.65677665 -197.18481445 151.94189453 C-197.21317383 151.08208984 -197.2415332 150.22228516 -197.27075195 149.33642578 C-196.09205915 141.1355208 -191.59517179 133.4099659 -187.90527344 126.07739258 C-187.43158325 125.12811386 -186.95789307 124.17883514 -186.46984863 123.20079041 C-184.91909164 120.09560242 -183.36263613 116.99331156 -181.8059082 113.89111328 C-180.71992767 111.72034577 -179.6342441 109.54942967 -178.54884338 107.37837219 C-176.28096965 102.84418362 -174.0104273 98.31134528 -171.73779297 93.77954102 C-168.82618078 87.97335017 -165.9198773 82.16452236 -163.01537991 76.35476971 C-160.77708083 71.87844347 -158.53669848 67.40316267 -156.29561043 62.92823219 C-155.22303597 60.78626209 -154.1509435 58.64405056 -153.0793438 56.50159264 C-151.58322504 53.51152448 -150.08447898 50.52278838 -148.58496094 47.53442383 C-147.92328667 46.21039551 -147.92328667 46.21039551 -147.24824524 44.85961914 C-145.58969674 41.55974826 -143.97647383 38.38353849 -141.9488678 35.2915802 C-140.39073976 32.91656563 -140.39073976 32.91656563 -141.80981445 29.12939453 C-148.07981445 29.12939453 -154.34981445 29.12939453 -160.80981445 29.12939453 C-161.46981445 30.77939453 -162.12981445 32.42939453 -162.80981445 34.12939453 C-163.50748132 35.62752795 -164.22181945 37.11798827 -164.95092773 38.60107422 C-165.37469193 39.46539062 -165.79845612 40.32970703 -166.23506165 41.22021484 C-166.92561897 42.62158691 -166.92561897 42.62158691 -167.63012695 44.05126953 C-168.11752853 45.04384766 -168.60493011 46.03642578 -169.10710144 47.05908203 C-170.16283632 49.20865521 -171.21933845 51.35785169 -172.27651978 53.50671387 C-173.94973568 56.9097417 -175.61891749 60.31472169 -177.28710938 63.72021484 C-182.48769571 74.3312511 -187.702575 84.93415758 -192.98193359 95.50628662 C-195.17852442 99.90783092 -197.36508057 104.31432304 -199.55072021 108.72131348 C-200.58755181 110.80480178 -201.62932121 112.88584107 -202.67633057 114.9642334 C-214.47982043 136.57306326 -214.47982043 136.57306326 -214.7434082 160.29345703 C-214.50895996 161.01686279 -214.27451172 161.74026855 -214.03295898 162.4855957 C-213.77369629 163.23429932 -213.51443359 163.98300293 -213.24731445 164.75439453 C-212.97773926 165.53983643 -212.70816406 166.32527832 -212.43041992 167.13452148 C-208.52237005 178.14230741 -203.84433187 189.61213582 -192.80981445 195.12939453 C-191.19753087 195.22574689 -189.58127543 195.25856913 -187.96611691 195.2608223 C-186.93660001 195.26466344 -185.90708311 195.26850459 -184.84636873 195.27246213 C-183.13673483 195.27116241 -183.13673483 195.27116241 -181.39256287 195.26983643 C-180.18847261 195.27280755 -178.98438235 195.27577867 -177.74380451 195.27883983 C-174.39081719 195.28603588 -171.03788107 195.28870037 -167.68488967 195.28943729 C-164.07257947 195.29128491 -160.46028045 195.29883093 -156.84797668 195.30557251 C-148.94278579 195.31917043 -141.03759996 195.32518329 -133.13239932 195.32958317 C-128.196476 195.33234407 -123.26055464 195.33658123 -118.32463264 195.34108734 C-104.6601025 195.35328369 -90.99557394 195.36358112 -77.33103848 195.36696243 C-76.45595985 195.367182 -75.58088122 195.36740157 -74.67928505 195.36762778 C-73.80209578 195.36784606 -72.92490651 195.36806434 -72.02113575 195.36828923 C-70.24358269 195.3687327 -68.46602962 195.36917926 -66.68847656 195.36962891 C-65.3658813 195.36996105 -65.3658813 195.36996105 -64.01656694 195.37029991 C-49.73819362 195.37424555 -35.45987142 195.3916908 -21.18151783 195.41498843 C-6.52401817 195.43871162 8.13345586 195.45116479 22.79097503 195.45233035 C31.02126244 195.45324676 39.25148332 195.45899008 47.4817524 195.47714996 C54.49251196 195.49256426 61.50318446 195.49766372 68.51395775 195.48941186 C72.08974774 195.48550956 75.66536249 195.48641411 79.24113083 195.50046921 C83.12217864 195.5155843 87.00298089 195.50732876 90.88404846 195.49688721 C92.00818935 195.50494361 93.13233023 195.51300002 94.29053599 195.52130055 C103.14269094 195.46562587 111.11105271 193.97091821 118.15893555 188.29345703 C125.08954408 180.90969332 129.30560645 170.96602176 133.7663269 161.99253845 C138.19604899 153.08571858 142.72829774 144.23128172 147.25411987 135.37301636 C148.84225409 132.26390203 150.42851136 129.15383476 152.01464844 126.04370117 C156.58056607 117.09753393 161.15206957 108.1557682 165.8347168 99.27001953 C166.16981262 98.63240189 166.50490845 97.99478424 166.85015869 97.33784485 C168.33718182 94.50950662 169.83207605 91.6860114 171.34301758 88.87036133 C171.84816895 87.91299072 172.35332031 86.95562012 172.8737793 85.96923828 C173.51657837 84.76835571 173.51657837 84.76835571 174.17236328 83.54321289 C175.98521006 79.24395261 176.52722391 76.16899172 175.08081055 71.70751953 C172.83805391 67.06363392 169.64831798 63.09156605 166.51049805 59.02783203 C165.3302737 57.44729768 164.2513699 55.79219521 163.19018555 54.12939453 C163.52018555 53.13939453 163.85018555 52.14939453 164.19018555 51.12939453 C171.06883931 51.1036055 177.9474802 51.08634811 184.82617188 51.07446289 C187.15625474 51.06949743 189.48633459 51.06272283 191.81640625 51.05395508 C203.54263159 51.01100187 215.27017366 51.01435328 226.9909668 51.41064453 C227.83886276 51.42816269 228.68675873 51.44568085 229.56034851 51.46372986 C235.81254121 51.72819004 239.86324537 53.34830362 244.3737793 57.89111328 C245.27290039 58.9990625 245.27290039 58.9990625 246.19018555 60.12939453 C246.73803711 60.77521484 247.28588867 61.42103516 247.8503418 62.08642578 C251.44722111 67.00583454 252.62503415 72.08414634 252.19018555 78.12939453 C249.41577766 91.32000044 243.81809518 101.74261322 234.19018555 111.12939453 C233.46702148 111.55220703 232.74385742 111.97501953 231.9987793 112.41064453 C229.15850989 115.10982064 229.23708451 118.47408166 228.81518555 122.19189453 C226.32127076 139.901027 220.64743779 158.59139514 206.19018555 170.12939453 C198.39999392 174.9750792 191.70987625 176.25166175 182.6081543 176.44580078 C181.38688591 176.47697243 181.38688591 176.47697243 180.14094543 176.5087738 C177.55327375 176.57388916 174.96550502 176.63297661 172.37768555 176.69189453 C170.61791009 176.73511595 168.85814427 176.77873138 167.09838867 176.82275391 C162.79575246 176.92953134 158.49301912 177.03090471 154.19018555 177.12939453 C153.92391357 177.63688232 153.6576416 178.14437012 153.38330078 178.66723633 C152.82171265 179.73711792 152.82171265 179.73711792 152.2487793 180.82861328 C151.83354004 181.61969482 151.41830078 182.41077637 150.99047852 183.22583008 C150.07623299 184.96407583 149.15986449 186.70120651 148.24145508 188.43725586 C146.21018877 192.27698373 144.18401651 196.11522217 142.2487793 200.00439453 C135.76867172 212.75411896 128.13437865 218.62970658 115.19018555 224.12939453 C112.05991951 225.09179909 109.22728407 225.25986744 105.9581852 225.27199554 C104.89293574 225.27830348 103.82768628 225.28461143 102.73015654 225.29111052 C100.97601284 225.29390351 100.97601284 225.29390351 99.18643188 225.29675293 C97.32177168 225.30544301 97.32177168 225.30544301 95.41944158 225.31430864 C91.96661861 225.32924694 88.51383639 225.33967124 85.06099486 225.34807348 C82.09975961 225.35608292 79.13854347 225.36777244 76.17732091 225.37948829 C65.56965488 225.42138072 54.96196637 225.44860706 44.35424805 225.47314453 C43.516643 225.47511943 42.67903796 225.47709433 41.81605095 225.47912908 C25.17561153 225.51830514 8.53516453 225.5519942 -8.10530663 225.57421112 C-11.76348252 225.57918022 -15.42165831 225.58422456 -19.07983398 225.58935547 C-19.98902775 225.59062614 -20.89822152 225.59189681 -21.83496661 225.59320599 C-36.5496473 225.61454711 -51.26410406 225.66352389 -65.97867219 225.72359961 C-81.09616998 225.78480971 -96.21355247 225.81941189 -111.33117259 225.82868433 C-119.81491667 225.83458475 -128.29828171 225.85223499 -136.78190231 225.90007019 C-144.01031337 225.94079078 -151.23828347 225.95750355 -158.46680407 225.94341737 C-162.15086255 225.93697597 -165.83398309 225.94159778 -169.51789474 225.97729111 C-197.86623255 226.23755743 -197.86623255 226.23755743 -208.80981445 218.12939453 C-209.62900549 217.54695229 -210.44819653 216.96451004 -211.29221153 216.36441803 C-216.76531062 212.25132628 -219.60028278 206.86816347 -222.55981445 200.81689453 C-223.30690674 199.33455322 -223.30690674 199.33455322 -224.0690918 197.82226562 C-225.67611169 194.60370185 -227.2476351 191.36994448 -228.80981445 188.12939453 C-229.64077637 186.41405518 -229.64077637 186.41405518 -230.48852539 184.6640625 C-232.15507599 181.20228315 -233.80037234 177.73143884 -235.43481445 174.25439453 C-236.19810059 172.64310669 -236.19810059 172.64310669 -236.97680664 170.99926758 C-242.41818002 159.1951174 -245.35428245 147.55817737 -240.85668945 134.89111328 C-237.80195068 126.65290356 -233.88976339 118.89942563 -229.88375854 111.08950806 C-227.73410824 106.89718291 -225.61127499 102.69134993 -223.48950195 98.48486328 C-223.07564743 97.66523605 -222.66179291 96.84560883 -222.23539734 96.00114441 C-219.07589687 89.71886657 -216.09298923 83.37285834 -213.24731445 76.94189453 C-209.3252626 68.12099661 -204.98810649 59.60908567 -200.40454102 51.11572266 C-198.83494315 48.1764512 -197.29016404 45.22547327 -195.7519989 42.26968384 C-194.2565922 39.39759705 -192.75369693 36.52945748 -191.25027466 33.66156006 C-190.50785681 32.24172433 -189.76825582 30.82041154 -189.03170776 29.39752197 C-177.75325349 7.63208391 -177.75325349 7.63208391 -167.80981445 3.12939453 C-164.8691044 2.2345843 -162.20470265 1.98977548 -159.13647461 1.95239258 C-158.21516754 1.93955734 -157.29386047 1.92672211 -156.34463501 1.91349792 C-155.35603485 1.90611099 -154.36743469 1.89872406 -153.34887695 1.89111328 C-152.32555267 1.88304153 -151.30222839 1.87496979 -150.24789429 1.86665344 C-148.08430668 1.85283463 -145.92069748 1.84210264 -143.75708008 1.83422852 C-140.4539257 1.81699424 -137.15176692 1.77308512 -133.84887695 1.72900391 C-131.74471763 1.71887822 -129.64054982 1.71036173 -127.53637695 1.70361328 C-126.55182526 1.68610519 -125.56727356 1.66859711 -124.55288696 1.65055847 C-118.64973992 1.66917624 -115.30984514 2.20469572 -110.80981445 6.12939453 C-107.91204841 10.53903851 -108.87712036 15.1789988 -109.80981445 20.12939453 C-110.75492138 23.03618342 -111.98953381 25.75452639 -113.30200195 28.51220703 C-113.6568869 29.28299591 -114.01177185 30.05378479 -114.37741089 30.84793091 C-115.50551489 33.28299255 -116.65433621 35.7072149 -117.80981445 38.12939453 C-118.17643188 38.90198608 -118.54304932 39.67457764 -118.92077637 40.47058105 C-121.55219049 46.00153987 -124.23760776 51.5052905 -126.93481445 57.00439453 C-127.76932769 58.71144754 -128.60371715 60.41856107 -129.43798828 62.12573242 C-136.01483707 75.56898579 -142.67993445 88.966749 -149.40698242 102.33544922 C-150.6430892 104.79733679 -151.87183878 107.26260503 -153.0949707 109.73095703 C-153.74991787 111.0512699 -154.40486574 112.37158243 -155.05981445 113.69189453 C-155.50490356 114.59149902 -155.50490356 114.59149902 -155.95898438 115.50927734 C-157.74462705 119.08930394 -159.60535168 122.62050662 -161.51293945 126.13720703 C-161.97667969 126.99757568 -162.44041992 127.85794434 -162.91821289 128.74438477 C-163.82366924 130.41820819 -164.7379463 132.08730002 -165.66235352 133.75073242 C-168.61641274 139.10289605 -168.61641274 139.10289605 -168.80981445 145.12939453 C-166.01608619 146.52625866 -163.61302354 146.41265225 -160.49731445 146.50439453 C-158.80155273 146.57787109 -158.80155273 146.57787109 -157.0715332 146.65283203 C-152.75375422 145.959919 -151.51592393 144.51430925 -148.80981445 141.12939453 C-147.4280386 138.86504727 -146.18713283 136.6741931 -144.99731445 134.31689453 C-144.65676025 133.66092285 -144.31620605 133.00495117 -143.96533203 132.32910156 C-141.26039828 127.09338477 -138.63729607 121.81513051 -136.02148438 116.53442383 C-133.20004142 110.85547897 -130.26450397 105.23996769 -127.30981445 99.62939453 C-122.24208881 89.9981214 -117.34179157 80.2944164 -112.5300293 70.53320312 C-111.16818335 67.77199348 -109.80155255 65.01318524 -108.43481445 62.25439453 C-108.00547607 61.37904053 -107.5761377 60.50368652 -107.13378906 59.60180664 C-106.73039307 58.78848877 -106.32699707 57.9751709 -105.91137695 57.13720703 C-105.55382324 56.41162598 -105.19626953 55.68604492 -104.82788086 54.93847656 C-103.80981445 53.12939453 -103.80981445 53.12939453 -101.80981445 51.12939453 C-99.37963867 50.90234375 -99.37963867 50.90234375 -96.36450195 50.93408203 C-94.74995117 50.94375 -94.74995117 50.94375 -93.1027832 50.95361328 C-91.41088867 50.97875 -91.41088867 50.97875 -89.68481445 51.00439453 C-87.98131836 51.01792969 -87.98131836 51.01792969 -86.2434082 51.03173828 C-83.43200147 51.05536355 -80.62101147 51.0883044 -77.80981445 51.12939453 C-77.47981445 51.78939453 -77.14981445 52.44939453 -76.80981445 53.12939453 C-77.62329102 55.37817383 -77.62329102 55.37817383 -78.95043945 58.20361328 C-79.68290894 59.7770752 -79.68290894 59.7770752 -80.43017578 61.38232422 C-80.96795654 62.51573242 -81.5057373 63.64914063 -82.05981445 64.81689453 C-82.60468506 65.97995117 -83.14955566 67.14300781 -83.7109375 68.34130859 C-85.40143882 71.94178069 -87.10396215 75.53617418 -88.80981445 79.12939453 C-89.31786621 80.20334473 -89.82591797 81.27729492 -90.34936523 82.38378906 C-94.58877376 91.3389918 -98.85331079 100.27990033 -103.30981445 109.12939453 C-106.50174096 115.48203066 -109.6407931 121.85954522 -112.74731445 128.25439453 C-113.24489258 129.26373047 -113.7424707 130.27306641 -114.25512695 131.31298828 C-114.71532227 132.26560547 -115.17551758 133.21822266 -115.6496582 134.19970703 C-116.06594482 135.05322754 -116.48223145 135.90674805 -116.91113281 136.78613281 C-118.04853835 139.33357329 -118.04853835 139.33357329 -117.80981445 143.12939453 C-114.80667698 144.63096327 -112.01913923 144.22220657 -108.68481445 144.19189453 C-106.76282227 144.17835938 -106.76282227 144.17835938 -104.80200195 144.16455078 C-103.81458008 144.15294922 -102.8271582 144.14134766 -101.80981445 144.12939453 C-97.03394167 135.13188606 -92.26610562 126.13438569 -87.74731445 117.00439453 C-85.02153498 111.49776934 -82.2021811 106.05035071 -79.30981445 100.62939453 C-74.99485676 92.53392153 -70.88220251 84.34892602 -66.80981445 76.12939453 C-61.16695966 64.75168187 -55.49749167 53.39828334 -49.51391602 42.19506836 C-47.33933974 38.105882 -45.24354932 33.99452918 -43.2434082 29.81689453 C-32.7673098 7.97358146 -32.7673098 7.97358146 -20.49731445 2.00439453 C-13.87548829 -0.15154887 -6.89285278 -0.01580205 0 0 Z M202.2956543 79.52783203 C200.99064233 81.6664804 200.10812726 83.798114 199.19018555 86.12939453 C198.10090124 88.07530048 196.99623113 90.01265995 195.87768555 91.94189453 C193.66491973 95.79801712 193.66491973 95.79801712 193.19018555 100.12939453 C205.10834942 100.72921271 205.10834942 100.72921271 215.62768555 96.37939453 C217.06454947 94.77853978 217.06454947 94.77853978 218.19018555 93.12939453 C218.85018555 92.36626953 219.51018555 91.60314453 220.19018555 90.81689453 C221.66543697 86.85215633 221.10143767 83.21315403 220.19018555 79.12939453 C217.95200805 76.89121704 212.9215341 77.5784425 209.84472656 77.54223633 C206.87386014 77.63497597 204.72714838 77.73303846 202.2956543 79.52783203 Z M178.19018555 129.12939453 C176.68686177 131.94013022 175.18808819 134.75326659 173.69018555 137.56689453 C173.26092773 138.36933594 172.83166992 139.17177734 172.3894043 139.99853516 C171.98334961 140.76230469 171.57729492 141.52607422 171.15893555 142.31298828 C170.78188477 143.0199585 170.40483398 143.72692871 170.01635742 144.45532227 C169.11642691 145.96771229 169.11642691 145.96771229 169.19018555 147.12939453 C180.34101687 148.26004929 180.34101687 148.26004929 190.56518555 144.94189453 C194.00434792 141.2570777 196.00355521 139.03302398 196.50268555 133.94189453 C196.47162368 130.9943693 196.47162368 130.9943693 194.19018555 129.12939453 C191.44532962 128.98431758 188.80538012 128.9428703 186.06518555 129.00439453 C184.9340332 129.01792969 184.9340332 129.01792969 183.7800293 129.03173828 C181.916613 129.05532583 180.05335962 129.09119734 178.19018555 129.12939453 Z " fill="#0e1011" transform="translate(251.809814453125,46.87060546875)"/>
<path d="M0 0 C7.87649443 -0.06995383 15.75291412 -0.12303908 23.62964249 -0.15543652 C27.28836401 -0.17099698 30.94687077 -0.19205566 34.60546875 -0.22631836 C38.14572975 -0.25925991 41.68578606 -0.27692504 45.22618866 -0.28463173 C47.21338155 -0.29275518 49.20049374 -0.31611689 51.18756104 -0.33988953 C61.17397317 -0.34171385 72.1404652 0.14809787 80 7 C84.51416555 12.96514733 85.21664289 19.61217303 85.4609375 26.86328125 C84.28041015 34.89686991 80.03016958 42.03664899 76.0625 49 C69.72354233 60.36150522 63.92275096 71.98094766 58.125 83.625 C57.66924591 84.54023438 57.21349182 85.45546875 56.743927 86.3984375 C55.41438636 89.06989774 54.08599767 91.74192814 52.7578125 94.4140625 C52.12730232 95.68072502 52.12730232 95.68072502 51.48405457 96.97297668 C49.69082984 100.57880162 47.90410726 104.18665196 46.15722656 107.81518555 C45.37943848 109.41680542 45.37943848 109.41680542 44.5859375 111.05078125 C44.16103027 111.93934814 43.73612305 112.82791504 43.29833984 113.7434082 C40.03594049 119.41365214 34.86034883 122.43140233 29 125 C25.77285767 125.36076355 25.77285767 125.36076355 22.26025391 125.34057617 C21.61564209 125.34101425 20.97103027 125.34145233 20.30688477 125.34190369 C18.19645885 125.33982956 16.08684797 125.31656576 13.9765625 125.29296875 C12.50540602 125.28736785 11.03424392 125.28310009 9.56307983 125.28010559 C5.70620048 125.26869557 1.84966441 125.23926212 -2.00708008 125.20599365 C-5.94868324 125.1752094 -9.89034231 125.16158247 -13.83203125 125.14648438 C-21.55484336 125.11438818 -29.27737343 125.0632391 -37 125 C-36.34202837 120.65626187 -35.40400403 117.32111142 -33.41015625 113.39453125 C-32.8788208 112.33959473 -32.34748535 111.2846582 -31.80004883 110.19775391 C-31.22665771 109.08062012 -30.6532666 107.96348633 -30.0625 106.8125 C-29.46912842 105.64122559 -28.87575684 104.46995117 -28.2644043 103.26318359 C-24.64174635 96.13505842 -20.93937438 89.05208496 -17.17773438 81.99658203 C-9.80709098 68.07523523 -2.89375757 53.90525743 4.10333252 39.79344177 C4.96060628 38.07879214 5.83859414 36.37454589 6.7175293 34.67089844 C9.24381898 29.4095984 8.68175103 23.97348982 6.8125 18.5625 C6.214375 17.386875 5.61625 16.21125 5 15 C4.09263596 13.10965826 3.19756734 11.21338327 2.3125 9.3125 C1.87550781 8.40113281 1.43851562 7.48976563 0.98828125 6.55078125 C0 4 0 4 0 0 Z M36 30 C34.48906912 32.10615041 34.48906912 32.10615041 33.265625 34.6640625 C32.77827881 35.61297363 32.29093262 36.56188477 31.78881836 37.53955078 C31.2810083 38.55774902 30.77319824 39.57594727 30.25 40.625 C29.71705322 41.67026855 29.18410645 42.71553711 28.63500977 43.79248047 C27.07718533 46.85539356 25.53551563 49.92585304 24 53 C23.61763184 53.763125 23.23526367 54.52625 22.84130859 55.3125 C21.56291763 57.86559957 20.2867085 60.41970846 19.01977539 62.97851562 C15.70832361 69.64778122 12.23772705 76.23319889 8.76733398 82.82080078 C4.20057174 90.10594453 4.20057174 90.10594453 2 98 C4.54348425 98.13593443 7.07961496 98.23448907 9.625 98.3125 C10.33785156 98.35439453 11.05070312 98.39628906 11.78515625 98.43945312 C15.68551889 98.52891098 17.65627784 98.20405784 21.0859375 96.16796875 C28.82161768 88.69123997 33.47493418 77.6980082 38.4375 68.3125 C38.76194092 67.70048737 39.08638184 67.08847473 39.4206543 66.45791626 C41.03755877 63.40700943 42.64975624 60.35368731 44.25732422 57.29785156 C45.74798608 54.47691286 47.26053723 51.66983797 48.78515625 48.8671875 C49.5246369 47.47459456 50.26304414 46.08143069 51 44.6875 C51.61875 43.53636719 52.2375 42.38523437 52.875 41.19921875 C54.24658003 37.29878804 54.06301026 34.97205175 53 31 C51.88338665 28.99664588 51.88338665 28.99664588 50 28 C47.62682822 27.56257029 47.62682822 27.56257029 45.0625 27.6875 C43.78052734 27.69330078 43.78052734 27.69330078 42.47265625 27.69921875 C39.76218047 28.02892907 38.30434009 28.54552308 36 30 Z " fill="#0e1011" transform="translate(320,97)"/>
<path d="M0 0 C1.36631661 -0.01148165 2.73258971 -0.03187314 4.09863281 -0.06152344 C15.59451553 -0.31061713 23.17044211 1.17099597 31.96508789 8.63500977 C35.91605112 13.28642077 36.1971234 19.0332286 36.17211914 24.89672852 C35.16807189 33.26510656 29.38153989 46.28887027 23.37524414 52.29516602 C20.49421673 52.56247784 17.63766491 52.76556396 14.75024414 52.92016602 C13.95489258 52.97172852 13.15954102 53.02329102 12.34008789 53.07641602 C7.51239245 53.34594253 3.13572664 53.15026609 -1.62475586 52.29516602 C0.90449812 43.21855244 0.90449812 43.21855244 3.00024414 39.10766602 C4.60262412 35.83007061 5.01418138 32.90579362 5.37524414 29.29516602 C-3.35018444 29.32515031 -9.84872033 30.57344371 -16.62475586 36.29516602 C-22.55261534 42.40982779 -25.53959707 50.33920213 -28.84960938 58.04223633 C-32.43606679 66.24201372 -36.79691485 73.91928244 -41.37133789 81.60449219 C-41.90871582 82.52077393 -42.44609375 83.43705566 -42.99975586 84.38110352 C-43.48186523 85.18596191 -43.96397461 85.99082031 -44.46069336 86.82006836 C-45.78746701 89.64113196 -46.24036098 92.21386114 -46.62475586 95.29516602 C-42.42936503 97.39286143 -37.19369044 96.69742438 -32.62475586 96.29516602 C-27.29270473 94.08186177 -24.7302921 89.99825578 -21.62866211 85.31860352 C-20.96737305 84.32086914 -20.30608398 83.32313477 -19.62475586 82.29516602 C-19.18687744 81.4558252 -18.74899902 80.61648437 -18.29785156 79.75170898 C-14.26045735 72.74759701 -14.26045735 72.74759701 -9.71728516 71.4909668 C-6.32269805 71.31065091 -3.07688755 71.41965316 0.31274414 71.67016602 C1.47354492 71.7152832 2.6343457 71.76040039 3.83032227 71.80688477 C6.68399079 71.92431968 9.52690381 72.08818768 12.37524414 72.29516602 C11.76274283 76.59414715 10.22721522 79.81854985 8.17211914 83.62719727 C7.85245178 84.2226384 7.53278442 84.81807953 7.20343018 85.43156433 C6.52728355 86.6879684 5.84799852 87.94268797 5.16577148 89.19580078 C4.13604889 91.08781337 3.11615927 92.98485444 2.09790039 94.88305664 C0.22057619 98.37103641 -1.69478837 101.83602555 -3.62475586 105.29516602 C-4.07431641 106.1144458 -4.52387695 106.93372559 -4.98706055 107.77783203 C-7.7439503 112.53733638 -10.83641118 115.53378719 -15.37475586 118.60766602 C-16.2294043 119.23125 -16.2294043 119.23125 -17.10131836 119.86743164 C-24.60106003 125.10891776 -32.18436296 126.75988561 -41.22631836 126.69360352 C-42.54737076 126.69790878 -42.54737076 126.69790878 -43.89511108 126.70230103 C-45.74217376 126.704328 -47.58925859 126.69889467 -49.4362793 126.6862793 C-52.24959518 126.67016694 -55.06148315 126.68619437 -57.87475586 126.70532227 C-59.6794465 126.70334034 -61.48413626 126.69949772 -63.28881836 126.69360352 C-64.12128082 126.69967621 -64.95374329 126.7057489 -65.81143188 126.71200562 C-71.80977626 126.64031956 -77.00460874 125.82797489 -81.49975586 121.48266602 C-84.31060861 116.017119 -83.55623729 111.98781506 -81.7980957 106.36889648 C-79.31011632 99.8512809 -75.8229396 93.79037493 -72.49975586 87.67016602 C-71.69326257 86.16886447 -70.88769589 84.66706483 -70.08300781 83.16479492 C-68.42306674 80.06803805 -66.75869534 76.97372567 -65.09106445 73.88110352 C-62.37829624 68.84471817 -59.69816233 63.79135515 -57.02305603 58.7348938 C-54.22299184 53.4423178 -51.40795693 48.15786255 -48.58876038 42.87545776 C-46.35127818 38.67674335 -44.14653823 34.46225667 -41.95288086 30.24047852 C-40.82288908 28.09192711 -39.69269333 25.94348296 -38.56225586 23.79516602 C-38.0745874 22.8404541 -37.58691895 21.88574219 -37.08447266 20.90209961 C-32.04766219 11.40538964 -25.40364404 4.02116889 -14.92333984 0.7668457 C-10.03841886 -0.23556187 -4.96926577 0.02901847 0 0 Z " fill="#0e1011" transform="translate(273.624755859375,96.704833984375)"/>
<path d="M0 0 C1.02998108 -0.00191345 2.05996216 -0.0038269 3.12115479 -0.00579834 C5.28959397 -0.00715528 7.45804141 -0.00349321 9.62646484 0.00488281 C12.95558715 0.01563295 16.28417517 0.00494834 19.61328125 -0.0078125 C21.72135536 -0.00649168 23.82942914 -0.00393088 25.9375 0 C26.93642273 -0.00404846 27.93534546 -0.00809692 28.96453857 -0.01226807 C29.8859967 -0.00596375 30.80745483 0.00034058 31.75683594 0.00683594 C32.56924744 0.00842712 33.38165894 0.01001831 34.21868896 0.01165771 C36.203125 0.265625 36.203125 0.265625 38.203125 2.265625 C22.363125 1.935625 6.523125 1.605625 -9.796875 1.265625 C-9.796875 1.925625 -9.796875 2.585625 -9.796875 3.265625 C-10.456875 3.265625 -11.116875 3.265625 -11.796875 3.265625 C-11.796875 3.925625 -11.796875 4.585625 -11.796875 5.265625 C-14.436875 5.265625 -17.076875 5.265625 -19.796875 5.265625 C-14.847249 -0.78391789 -7.11234813 -0.02906068 0 0 Z " fill="#0e1011" transform="translate(98.796875,48.734375)"/>
<path d="M0 0 C7.92 0 15.84 0 24 0 C24.33 0.66 24.66 1.32 25 2 C24.01 3.485 24.01 3.485 23 5 C23 4.34 23 3.68 23 3 C15.08 2.67 7.16 2.34 -1 2 C-0.67 1.34 -0.34 0.68 0 0 Z " fill="#0e1011" transform="translate(150,98)"/>
<path d="M0 0 C0 0.66 0 1.32 0 2 C-0.66 2 -1.32 2 -2 2 C-2 2.66 -2 3.32 -2 4 C-4.64 4 -7.28 4 -10 4 C-6.66064924 0.50886057 -4.84725717 -0.1275594 0 0 Z " fill="#0e1011" transform="translate(89,50)"/>
<path d="M0 0 C0 2 0 2 -2.1875 4.375 C-4.70610834 6.72570111 -7.27358589 8.89676626 -10 11 C-8.73396788 6.69549079 -5.08358566 0 0 0 Z " fill="#0e1011" transform="translate(226,53)"/>
<path d="M0 0 C0.99 0.33 1.98 0.66 3 1 C0.69 3.31 -1.62 5.62 -4 8 C-4 4.09161134 -2.49432124 2.88405893 0 0 Z " fill="#0e1011" transform="translate(77,54)"/>
</svg>
