<svg xmlns="http://www.w3.org/2000/svg" viewBox="0 0 96 96" fill="none">
  
  
  <g>
    
    <rect x="4" y="4" width="14" height="14" fill="#E8E2D5"></rect>
    <rect x="20" y="4" width="14" height="14" fill="#F4F1EA"></rect>
    <rect x="36" y="4" width="14" height="14" fill="#D9D2C2"></rect>
    <rect x="52" y="4" width="14" height="14" fill="#F4F1EA"></rect>
    <rect x="68" y="4" width="14" height="14" fill="#E8E2D5"></rect>

    
    <rect x="4" y="20" width="14" height="14" fill="#F4F1EA"></rect>
    <rect x="20" y="20" width="14" height="14" fill="#E8E2D5"></rect>
    <rect x="36" y="20" width="14" height="14" fill="#B5532C"></rect>
    <rect x="52" y="20" width="14" height="14" fill="#E8E2D5"></rect>
    <rect x="68" y="20" width="14" height="14" fill="#F4F1EA"></rect>

    
    <rect x="4" y="36" width="14" height="14" fill="#D9D2C2"></rect>
    <rect x="20" y="36" width="14" height="14" fill="#B5532C"></rect>
    <rect x="36" y="36" width="14" height="14" fill="#2A2F36"></rect>
    <rect x="52" y="36" width="14" height="14" fill="#B5532C"></rect>
    <rect x="68" y="36" width="14" height="14" fill="#D9D2C2"></rect>

    
    <rect x="4" y="52" width="14" height="14" fill="#F4F1EA"></rect>
    <rect x="20" y="52" width="14" height="14" fill="#E8E2D5"></rect>
    <rect x="36" y="52" width="14" height="14" fill="#B5532C"></rect>
    <rect x="52" y="52" width="14" height="14" fill="#E8E2D5"></rect>
    <rect x="68" y="52" width="14" height="14" fill="#F4F1EA"></rect>

    
    <rect x="4" y="68" width="14" height="14" fill="#E8E2D5"></rect>
    <rect x="20" y="68" width="14" height="14" fill="#F4F1EA"></rect>
    <rect x="36" y="68" width="14" height="14" fill="#D9D2C2"></rect>
    <rect x="52" y="68" width="14" height="14" fill="#F4F1EA"></rect>
    <rect x="68" y="68" width="14" height="14" fill="#E8E2D5"></rect>
  </g>
</svg>